<?xml version="1.0" standalone="no"?>
<!DOCTYPE svg PUBLIC "-//W3C//DTD SVG 20010904//EN"
 "http://www.w3.org/TR/2001/REC-SVG-20010904/DTD/svg10.dtd">
<svg version="1.0" xmlns="http://www.w3.org/2000/svg"
 width="260.000000pt" height="260.000000pt" viewBox="0 0 260.000000 260.000000"
 preserveAspectRatio="xMidYMid meet">
<metadata>
Created by potrace 1.14, written by Peter Selinger 2001-2017
</metadata>
<g transform="translate(0.000000,260.000000) scale(0.100000,-0.100000)"
fill="#000000" stroke="none">
<path d="M0 1300 l0 -1300 1300 0 1300 0 0 1224 c0 1141 -1 1224 -17 1222 -19
-1 -33 43 -34 112 l-1 42 -84 0 c-82 0 -84 -1 -84 -24 0 -37 -10 -57 -35 -66
-20 -8 -24 -18 -29 -82 -4 -40 -3 -161 1 -268 5 -107 7 -208 5 -223 -5 -32
-29 -47 -43 -26 -5 8 -8 129 -7 269 1 140 -1 265 -5 278 -10 26 -27 20 -27 -9
0 -10 -4 -19 -9 -19 -9 0 -15 29 -23 110 -2 20 -8 24 -27 22 -17 -3 -21 0 -16
10 4 7 0 5 -10 -4 -16 -15 -18 -37 -19 -182 -1 -115 -5 -169 -13 -177 -23 -23
-33 38 -34 204 -1 149 -2 157 -13 107 -6 -31 -20 -65 -32 -76 l-21 -21 -6 71
c-3 39 -8 79 -12 89 -7 16 -64 17 -1006 17 l-999 0 0 -1300z m2521 1273 c13
-17 13 -17 -6 -3 -11 8 -22 16 -24 17 -2 2 0 3 6 3 6 0 17 -8 24 -17z m-144
-235 c-2 -24 -4 -5 -4 42 0 47 2 66 4 43 2 -24 2 -62 0 -85z m-887 -69 c0 -18
-4 -28 -10 -24 -5 3 -10 20 -10 36 0 18 4 28 10 24 6 -3 10 -20 10 -36z m30
-26 c0 -20 -3 -24 -11 -16 -7 7 -9 19 -6 27 10 24 17 19 17 -11z m-140 -45 c0
-28 -13 -37 -25 -18 -4 6 -11 8 -16 4 -9 -5 -5 26 8 66 7 23 33 -17 33 -52z
m171 25 c10 -11 10 -14 2 -9 -8 4 -13 2 -13 -6 0 -8 6 -20 13 -28 6 -8 2 -6
-9 3 -14 12 -20 25 -17 38 6 23 7 23 24 2z m-66 -44 c-2 -10 0 -21 6 -24 5 -4
9 2 10 12 0 14 3 12 10 -6 5 -13 7 -26 4 -29 -3 -3 -5 0 -5 7 0 7 -4 10 -9 7
-13 -8 -26 14 -29 49 -2 22 0 26 7 16 5 -8 8 -22 6 -32z m-405 -159 c0 -38 -4
-70 -8 -70 -11 0 -47 39 -60 65 -11 23 -15 122 -5 138 3 6 20 -5 40 -26 31
-34 33 -41 33 -107z m463 97 c-4 -18 -3 -19 6 -7 9 12 11 11 11 -7 0 -26 -15
-31 -24 -7 -9 24 -7 56 3 50 5 -3 7 -16 4 -29z m-58 -118 c-8 -45 -30 -73 -50
-66 -21 9 -19 34 4 40 10 2 24 18 32 35 17 38 22 35 14 -9z m-301 -118 c23
-24 29 -41 33 -90 7 -92 0 -101 -42 -51 -32 38 -35 47 -35 106 0 35 4 64 8 64
5 0 21 -13 36 -29z m-103 -143 c125 -132 144 -148 147 -127 3 22 147 179 164
179 4 0 5 -26 3 -57 -4 -68 14 -115 51 -132 23 -10 28 -8 61 29 34 38 37 39
55 23 34 -30 22 -56 -66 -142 -79 -76 -87 -81 -108 -70 -25 13 -23 10 61 -81
l32 -35 186 190 c102 105 183 185 182 178 -5 -15 -78 -92 -336 -354 -188 -192
-203 -209 -203 -243 0 -21 -5 -36 -12 -36 -9 0 -9 -3 0 -12 9 -9 12 -70 12
-212 l0 -200 -35 34 c-19 19 -35 40 -35 47 0 16 -12 17 -28 1 -7 -7 -8 -17 -2
-29 7 -11 7 -20 0 -24 -15 -9 -32 5 -26 22 4 10 1 13 -13 8 -23 -7 -36 9 -25
33 11 25 16 85 14 190 -1 86 0 92 19 92 11 0 23 5 26 11 6 9 59 -55 60 -73 0
-3 4 -10 9 -15 6 -5 6 -2 1 7 -5 8 -4 12 0 7 11 -10 16 -39 6 -32 -5 2 -6 -26
-3 -64 2 -39 0 -77 -7 -88 -8 -17 -6 -24 9 -38 20 -18 20 -17 20 136 l0 154
-80 80 -81 80 2 -183 c1 -100 -1 -185 -4 -188 -3 -3 -1 -18 3 -34 10 -36 2
-45 -21 -24 -17 16 -18 18 -2 45 l16 28 -110 112 -110 112 -2 384 c-1 212 2
383 6 381 5 -1 122 -120 261 -263 241 -248 290 -294 260 -246 -11 18 -11 23 0
30 11 7 10 11 -3 25 -22 21 -23 21 -17 -10 4 -20 2 -25 -8 -19 -7 4 -10 18 -6
36 3 16 1 29 -4 29 -5 0 -10 -10 -13 -22 -3 -21 -4 -21 -12 -4 -5 12 -3 21 6
26 7 5 11 11 9 14 -3 3 -77 78 -165 168 -274 280 -310 318 -299 318 6 0 76
-68 155 -152z m659 -3 c0 -39 -3 -75 -7 -79 -4 -3 -22 8 -40 26 -32 31 -33 35
-33 108 0 42 3 80 8 84 4 4 22 -9 40 -30 30 -35 32 -43 32 -109z m-150 48 c0
-8 -9 0 -50 45 l-45 47 48 -45 c26 -24 47 -45 47 -47z m-20 -17 c0 -6 -9 -17
-20 -24 -17 -11 -20 -9 -26 14 -5 20 -9 23 -16 12 -8 -10 -9 -10 -5 2 2 8 9
15 15 15 5 0 14 3 18 7 9 9 34 -10 34 -26z m275 -137 c-5 -15 -4 -19 4 -15 8
5 11 -58 11 -224 0 -152 -3 -229 -10 -225 -6 4 -10 77 -10 186 0 98 -3 179 -8
179 -4 0 -44 -40 -90 -89 l-82 -90 -1 -223 c0 -123 -4 -232 -9 -243 -6 -14 -9
-3 -9 40 l-1 60 -95 -95 c-52 -52 -95 -89 -95 -83 0 6 3 13 8 15 4 2 46 46 95
99 l87 97 0 158 0 159 -84 -84 c-74 -73 -101 -89 -72 -42 7 10 5 12 -5 6 -18
-10 60 74 230 246 90 93 131 141 126 150 -6 9 -11 6 -17 -10 -4 -12 -12 -20
-17 -17 -5 3 -12 -4 -16 -17 -6 -18 -8 -19 -12 -5 -2 9 10 31 29 51 38 41 52
46 43 16z m125 -141 l0 -72 -35 34 c-34 33 -35 36 -35 109 l1 76 34 -37 c33
-36 35 -41 35 -110z m-1183 -30 c-3 -8 -6 -5 -6 6 -1 11 2 17 5 13 3 -3 4 -12
1 -19z m1023 -13 c-13 -14 -26 -23 -28 -20 -8 8 -32 -16 -26 -26 3 -5 -2 -6
-10 -3 -9 3 -16 2 -16 -4 0 -6 6 -9 13 -8 21 3 38 17 32 27 -3 5 1 6 10 3 14
-6 13 -10 -9 -33 -19 -20 -22 -30 -15 -44 7 -12 7 -17 -2 -15 -6 2 -13 -5 -14
-15 -3 -18 -2 -18 15 -2 11 10 18 20 17 24 -1 3 8 19 21 35 12 16 22 24 22 19
0 -5 -9 -18 -19 -27 -11 -10 -18 -23 -15 -30 3 -7 -4 -20 -15 -30 -23 -21 -18
-44 5 -25 11 9 14 9 14 -1 0 -9 4 -9 17 1 9 8 4 -3 -11 -23 -16 -21 -25 -38
-21 -38 5 0 0 -9 -10 -20 -10 -11 -23 -17 -29 -14 -6 3 -2 -2 8 -10 18 -15 21
-14 41 4 l21 20 36 -38 c34 -35 37 -42 39 -107 2 -51 0 -69 -9 -67 -8 1 -12
-18 -12 -65 0 -66 -1 -68 -46 -114 l-46 -46 12 -43 c9 -34 9 -45 -3 -58 -15
-19 -31 -53 -29 -64 1 -4 -4 -5 -12 -2 -8 3 -17 0 -21 -5 -3 -6 -11 -9 -16 -5
-5 3 -7 9 -4 14 3 4 -4 6 -15 3 -13 -3 -22 1 -26 12 -6 13 -23 0 -91 -67 -46
-45 -83 -76 -81 -68 2 8 -3 14 -11 12 -7 -1 23 36 66 84 l80 87 6 94 c4 78 9
99 26 117 12 12 21 28 21 35 0 6 14 18 30 25 17 7 28 15 25 17 -3 3 9 18 25
34 17 16 30 33 30 39 0 5 -13 -2 -28 -17 -26 -25 -28 -25 -29 -7 -1 11 3 22 8
26 7 4 7 10 0 18 -10 12 -9 55 1 46 3 -3 15 4 27 14 12 11 21 14 21 9 0 -6 -7
-16 -15 -23 -8 -7 -13 -16 -10 -20 3 -5 0 -12 -6 -16 -8 -4 -7 -9 2 -15 9 -5
22 0 36 13 19 18 23 32 23 82 l0 60 -51 -49 c-29 -28 -48 -43 -43 -35 4 8 8
36 9 61 0 44 19 84 35 74 4 -3 14 3 21 13 13 15 12 16 -3 3 -14 -10 -18 -11
-18 -1 0 9 -7 7 -22 -6 -13 -11 -18 -12 -12 -4 5 8 9 37 9 63 -1 26 2 50 7 53
13 8 9 22 -4 20 -22 -3 -39 -17 -32 -27 3 -5 0 -8 -8 -7 -7 2 -12 -3 -10 -10
1 -8 -2 -11 -8 -7 -15 9 1 32 59 90 28 27 51 43 51 35 0 -11 4 -11 17 3 27 27
29 20 3 -8z m-189 -188 c-6 -8 -9 -16 -6 -19 3 -3 -1 -11 -9 -17 -11 -10 -14
-9 -12 2 2 16 25 47 33 47 3 0 0 -6 -6 -13z m89 -71 c0 -2 -8 -10 -17 -17 -16
-13 -17 -12 -4 4 13 16 21 21 21 13z m-93 -44 c-10 -10 -15 -21 -12 -24 3 -3
-3 -11 -12 -19 -16 -13 -17 -12 -4 4 7 9 10 17 6 17 -5 0 0 9 10 20 10 11 20
20 23 20 3 0 -2 -8 -11 -18z m-97 -216 c-7 -7 -10 21 -10 90 0 131 14 145 18
18 2 -58 -1 -101 -8 -108z m110 171 c0 -2 -10 -12 -22 -23 l-23 -19 19 23 c18
21 26 27 26 19z m-140 -201 c-8 -8 -10 11 -9 69 2 107 13 120 17 21 2 -48 -1
-83 -8 -90z m-203 79 c0 -23 -13 -18 -33 13 -28 42 -26 57 5 28 15 -15 28 -33
28 -41z m-428 10 c28 -32 31 -42 31 -98 0 -91 -12 -101 -55 -52 -31 37 -34 45
-35 106 0 92 10 99 59 44z m608 -82 c-3 -10 -5 -4 -5 12 0 17 2 24 5 18 2 -7
2 -21 0 -30z m723 -24 c0 -5 -4 -9 -10 -9 -5 0 -10 7 -10 16 0 8 5 12 10 9 6
-3 10 -10 10 -16z m-1478 -117 c-2 -8 1 -11 7 -7 7 4 11 -4 11 -20 0 -24 -2
-25 -15 -11 -8 8 -15 26 -15 40 0 14 -5 28 -12 32 -6 4 -8 3 -4 -4 3 -6 2 -13
-4 -17 -6 -4 -10 7 -10 26 l0 32 22 -29 c13 -16 22 -35 20 -42z m1233 28 c1
-11 -2 -20 -7 -20 -4 0 -8 12 -8 27 0 30 13 24 15 -7z m-425 -25 c-7 -9 -15
-13 -18 -10 -3 2 1 11 8 20 7 9 15 13 18 10 3 -2 -1 -11 -8 -20z m459 -22 c1
28 18 11 23 -22 l4 -30 -23 22 c-12 12 -22 29 -22 37 0 10 3 8 9 -5 8 -18 9
-18 9 -2z m-1216 -17 c4 -10 1 -13 -9 -9 -7 3 -14 9 -14 14 0 14 17 10 23 -5z
m1174 -18 c-3 -8 -6 -5 -6 6 -1 11 2 17 5 13 3 -3 4 -12 1 -19z m95 -22 c2
-19 0 -32 -4 -30 -8 5 -12 64 -4 64 2 0 6 -15 8 -34z m-1263 -21 c0 -5 -6 -1
-14 9 -8 11 -15 24 -15 30 0 5 7 1 15 -10 8 -10 14 -23 14 -29z m-339 25 c0
-5 -4 -10 -10 -10 -5 0 -10 5 -10 10 0 6 5 10 10 10 6 0 10 -4 10 -10z m363
-9 c2 -10 1 -25 -4 -32 -6 -10 -9 -4 -9 19 0 36 5 42 13 13z m1157 -7 c0 -8
-5 -12 -10 -9 -6 4 -8 11 -5 16 9 14 15 11 15 -7z m23 -14 c-7 -27 -13 -25
-11 4 1 14 5 23 9 20 4 -2 5 -13 2 -24z m-1131 -45 c-6 -34 -9 -31 -14 10 -3
25 -1 31 8 24 6 -5 9 -20 6 -34z m1175 0 c6 0 15 -4 20 -9 5 -5 3 -6 -4 -2 -8
4 -13 2 -13 -6 -1 -9 -5 -7 -14 4 -7 10 -17 14 -21 10 -5 -4 -5 1 -2 11 4 10
7 24 8 30 1 7 4 1 8 -13 4 -14 12 -25 18 -25z m-1210 13 c-3 -8 -6 -5 -6 6 -1
11 2 17 5 13 3 -3 4 -12 1 -19z m-46 -5 c10 -11 10 -14 1 -9 -14 8 -12 -19 3
-44 8 -13 7 -13 -8 -1 -9 7 -17 26 -17 42 0 34 3 35 21 12z m26 -55 c-3 -8 -6
-5 -6 6 -1 11 2 17 5 13 3 -3 4 -12 1 -19z m183 -33 c0 -19 0 -19 -20 1 -13
13 -18 27 -14 37 6 16 7 16 20 0 7 -10 14 -27 14 -38z m1091 12 c-8 -8 -11 -3
-11 19 1 25 2 27 11 11 8 -14 8 -22 0 -30z m-1252 -9 c0 -27 -2 -29 -8 -13 -5
11 -6 26 -4 33 8 21 13 13 12 -20z m1031 -8 c0 -9 -31 -30 -44 -30 -12 0 -6
28 7 33 20 9 37 8 37 -3z m-994 -48 c-4 -3 -12 0 -19 8 -9 10 -9 11 1 6 7 -5
12 -1 13 11 1 17 2 17 6 0 3 -10 2 -21 -1 -25z m674 -171 l-1 -76 -34 37 c-33
36 -35 41 -35 110 l0 72 35 -34 c34 -33 35 -36 35 -109z"/>
<path d="M1350 2221 c0 -11 5 -23 10 -26 6 -3 10 3 10 14 0 11 -4 23 -10 26
-5 3 -10 -3 -10 -14z"/>
<path d="M941 1399 l-1 -321 90 -92 90 -91 0 323 0 323 -82 90 c-46 49 -86 89
-90 89 -3 0 -7 -145 -7 -321z m63 221 c-13 -13 -37 12 -41 43 -3 21 -2 20 24
-5 19 -20 24 -31 17 -38z m66 -58 c-7 -3 -1 -16 14 -31 24 -25 25 -28 7 -26
-11 1 -26 7 -34 14 -12 9 -16 9 -20 -1 -2 -7 14 -33 37 -58 22 -24 31 -36 19
-26 -15 12 -23 15 -23 7 0 -7 -5 -9 -12 -4 -18 10 -38 13 -38 4 0 -4 11 -18
25 -31 14 -13 23 -26 20 -29 -3 -2 7 -17 22 -33 15 -15 22 -28 16 -28 -6 0
-16 6 -22 14 -7 8 -20 13 -29 11 -9 -2 -21 -4 -27 -4 -5 -1 8 -18 28 -39 20
-21 37 -41 37 -45 0 -3 -18 13 -40 36 -33 35 -39 38 -37 20 2 -13 13 -33 25
-46 25 -26 28 -38 10 -34 -23 4 -13 -38 16 -70 16 -18 26 -36 22 -40 -7 -8
-12 -9 -38 -12 -6 0 -1 -13 13 -28 13 -16 5 -11 -17 10 -38 36 -40 40 -40 95
1 31 4 62 9 69 4 6 3 14 -1 17 -8 4 -7 104 0 259 l2 37 33 -32 c18 -17 33 -27
33 -22 0 6 -15 25 -34 43 -20 20 -32 39 -29 48 4 11 12 8 35 -14 16 -15 24
-29 18 -31z m-89 -59 c13 -16 12 -17 -3 -4 -10 7 -18 15 -18 17 0 8 8 3 21
-13z m119 -516 c-3 -3 -36 30 -74 72 l-69 76 73 -72 c41 -40 72 -74 70 -76z
m-69 46 c13 -16 12 -17 -3 -4 -10 7 -18 15 -18 17 0 8 8 3 21 -13z"/>
<path d="M970 1646 c0 -2 8 -10 18 -17 15 -13 16 -12 3 4 -13 16 -21 21 -21
13z"/>
<path d="M1035 1580 c10 -11 20 -20 23 -20 3 0 -3 9 -13 20 -10 11 -20 20 -23
20 -3 0 3 -9 13 -20z"/>
<path d="M1040 1475 c13 -14 26 -25 28 -25 3 0 -5 11 -18 25 -13 14 -26 25
-28 25 -3 0 5 -11 18 -25z"/>
<path d="M1013 1467 c0 -8 6 -14 14 -14 9 0 10 4 2 14 -6 7 -12 13 -14 13 -1
0 -2 -6 -2 -13z"/>
<path d="M1030 1405 c13 -14 26 -25 28 -25 3 0 -5 11 -18 25 -13 14 -26 25
-28 25 -3 0 5 -11 18 -25z"/>
<path d="M1014 1385 c3 -19 13 -28 32 -31 12 -2 10 4 -7 22 -26 28 -28 29 -25
9z"/>
<path d="M1016 1251 c-4 -5 -2 -12 3 -15 5 -4 12 -2 15 3 4 5 2 12 -3 15 -5 4
-12 2 -15 -3z"/>
<path d="M1014 1191 c1 -32 28 -68 51 -68 17 0 6 24 -24 51 -11 10 -18 22 -16
27 3 4 1 10 -3 13 -5 3 -9 -8 -8 -23z m31 -41 c10 -11 16 -20 13 -20 -3 0 -13
9 -23 20 -10 11 -16 20 -13 20 3 0 13 -9 23 -20z"/>
<path d="M1010 1136 c0 -2 8 -10 18 -17 15 -13 16 -12 3 4 -13 16 -21 21 -21
13z"/>
<path d="M1141 1410 c0 -90 3 -110 11 -92 20 41 26 34 48 -65 6 -29 18 -57 26
-64 9 -7 14 -8 13 -3 -5 22 15 94 25 91 6 -2 16 -30 22 -63 7 -32 12 -61 13
-63 3 -11 40 34 45 55 4 14 11 22 16 19 6 -3 19 0 31 8 20 15 16 20 -115 154
l-135 138 0 -115z m49 -51 c0 -6 -4 -7 -10 -4 -5 3 -10 11 -10 16 0 6 5 7 10
4 6 -3 10 -11 10 -16z m100 -71 c0 -6 -7 -5 -15 2 -8 7 -15 17 -15 22 0 6 7 5
15 -2 8 -7 15 -17 15 -22z m84 -44 c3 -8 2 -12 -4 -9 -6 3 -10 10 -10 16 0 14
7 11 14 -7z"/>
<path d="M1450 1314 c0 -8 5 -12 10 -9 6 3 10 10 10 16 0 5 -4 9 -10 9 -5 0
-10 -7 -10 -16z"/>
<path d="M1140 1219 c0 -5 5 -7 10 -4 6 3 10 8 10 11 0 2 -4 4 -10 4 -5 0 -10
-5 -10 -11z"/>
<path d="M1176 1181 c-3 -4 7 -19 22 -32 l27 -24 -23 26 c-12 14 -19 29 -15
32 3 4 4 7 0 7 -3 0 -8 -4 -11 -9z"/>
<path d="M1250 1096 c0 -2 8 -10 18 -17 15 -13 16 -12 3 4 -13 16 -21 21 -21
13z"/>
<path d="M1230 877 c0 -9 -4 -17 -10 -17 -5 0 -10 -22 -10 -48 0 -26 -6 -54
-12 -62 -7 -7 3 -1 23 13 34 26 36 29 29 72 -7 45 -20 73 -20 42z"/>
<path d="M1739 1213 c-13 -16 -12 -17 4 -4 16 13 21 21 13 21 -2 0 -10 -8 -17
-17z"/>
<path d="M1749 1193 c-13 -16 -12 -17 4 -4 16 13 21 21 13 21 -2 0 -10 -8 -17
-17z"/>
<path d="M1739 1133 c-13 -16 -12 -17 4 -4 16 13 21 21 13 21 -2 0 -10 -8 -17
-17z"/>
<path d="M1791 1036 c-6 -7 -8 -16 -4 -20 4 -3 -9 -23 -28 -43 -19 -21 -24
-29 -11 -19 13 12 22 14 22 7 0 -7 5 -9 10 -6 20 12 10 -2 -22 -31 -27 -24
-29 -25 -13 -4 l20 25 -22 -18 c-18 -16 -20 -23 -12 -50 5 -18 9 -33 9 -35 0
-2 6 0 13 4 9 5 9 4 0 -6 -6 -7 -9 -19 -6 -27 4 -11 17 -3 49 28 42 41 44 46
44 102 0 43 -5 65 -19 83 -15 19 -21 21 -30 10z m29 -99 c0 -2 -19 -21 -42
-42 l-43 -40 40 43 c36 39 45 47 45 39z"/>
<path d="M1739 1003 c-13 -16 -12 -17 4 -4 16 13 21 21 13 21 -2 0 -10 -8 -17
-17z"/>
<path d="M1732 718 c-14 -14 -15 -37 -3 -57 8 -12 12 -12 26 2 14 14 14 20 3
42 -11 20 -16 23 -26 13z"/>
<path d="M1255 1000 c10 -11 20 -20 23 -20 3 0 -3 9 -13 20 -10 11 -20 20 -23
20 -3 0 3 -9 13 -20z"/>
<path d="M2010 2589 c0 -5 5 -7 10 -4 6 3 10 8 10 11 0 2 -4 4 -10 4 -5 0 -10
-5 -10 -11z"/>
</g>
</svg>
